<svg width="32" height="33" viewBox="0 0 32 33" fill="none" xmlns="http://www.w3.org/2000/svg">
<circle cx="16" cy="16.5" r="16" fill="#D52E4C"/>
<path d="M22.3912 11.7391C21.7761 12.3542 21.7253 13.3182 22.0795 14.1128C23.1564 16.5284 22.7955 19.382 20.8129 21.3646C18.8345 23.343 16.0209 23.6618 13.6296 22.5791C12.8325 22.2182 11.8623 22.2679 11.2436 22.8867C10.4972 23.6331 10.5636 24.8775 11.5001 25.3646C15.24 27.3102 19.9358 26.7754 23.1056 23.6056C26.277 20.4342 26.8107 15.7353 24.8617 11.9944C24.3755 11.0613 23.1353 10.9951 22.3912 11.7391ZM8.88642 9.38643C5.71689 12.556 5.19858 17.2422 7.1301 20.9795C7.61582 21.9193 8.86312 21.9881 9.61117 21.24C10.2285 20.6227 10.2795 19.6554 9.92004 18.8599C8.84335 16.4774 9.15135 13.6809 11.1402 11.692C13.1324 9.69982 15.9716 9.35745 18.3744 10.4228C19.168 10.7746 20.1293 10.7218 20.7431 10.108C21.4894 9.36165 21.4208 8.11718 20.4833 7.63213C16.7455 5.69822 12.0571 6.21579 8.88642 9.38643Z" fill="white"/>
</svg>
